<?xml version="1.0" encoding="UTF-8"?>
<svg width="24px" height="24px" viewBox="0 0 24 24" version="1.1" xmlns="http://www.w3.org/2000/svg" xmlns:xlink="http://www.w3.org/1999/xlink">
    <title>_All / Icons / Angle-up</title>
    <g id="Icons" stroke="none" stroke-width="1" fill="none" fill-rule="evenodd">
        <g id="D.-Desktop" transform="translate(-848.000000, -232.000000)" fill="#262222">
            <g id="Icon-colour" transform="translate(848.000000, 232.000000)">
                <path d="M7.43533398,7.10704571 L10.5887512,0.863185592 C10.9811482,0.0892703772 11.9278893,-0.220580733 12.7070271,0.1668124 C13.0106179,0.318746273 13.2578341,0.564393935 13.4109596,0.867663414 L16.5637954,7.1103741 L22.5730126,7.7060694 C23.4399752,7.78998508 24.0779524,8.55813234 23.9924487,9.42438405 C23.9561844,9.79002602 23.7934852,10.1301581 23.533834,10.3840472 L18.5539921,15.313842 L20.3998169,22.0107701 C20.6294225,22.8520401 20.128832,23.7160324 19.287004,23.9422115 C18.9157556,24.0421821 18.5201322,24.0034262 18.1714909,23.8324098 L11.9997399,20.7757893 L5.82642437,23.8363379 C5.04846552,24.2199186 4.10220254,23.906904 3.71202072,23.1308872 C3.53877335,22.7845289 3.49923671,22.3879049 3.60143185,22.0124966 L5.44530399,15.3138072 L0.465208902,10.3806334 C-0.155069634,9.76639385 -0.155069634,8.76809639 0.465208902,8.1538568 C0.723139463,7.89843741 1.06353913,7.73832176 1.42435189,7.70291403 L7.43533398,7.10704571 Z M12.0435022,1.55820107 C12.0390664,1.54941579 12.0312885,1.54168727 12.0232164,1.53764466 C11.9969447,1.52458227 11.9658217,1.53476828 11.955627,1.55487282 L8.61314772,8.17308354 C8.49505789,8.40690501 8.26566788,8.56416431 8.00499575,8.59000472 L1.57471881,9.22743734 C1.56377497,9.22851131 1.55111464,9.23446641 1.54312888,9.24237443 C1.52818511,9.25717271 1.52818511,9.27731754 1.54321517,9.29220128 L6.84177587,14.5408401 C7.03843565,14.735647 7.11468664,15.0214046 7.04122401,15.2882904 L5.07899321,22.416959 C5.07637313,22.426584 5.07731093,22.4359918 5.08138955,22.4441496 C5.09167044,22.4645967 5.12323841,22.4750391 5.14747144,22.4630928 L11.6593404,19.2346973 C11.8736082,19.1284695 12.1251958,19.1284179 12.3395072,19.2345578 L18.8487477,22.4583295 C18.8620664,22.4648624 18.8764605,22.4662724 18.889092,22.4628711 C18.9147353,22.4559814 18.9274062,22.434112 18.9224579,22.4159723 L16.9579741,15.2885405 C16.8843733,15.0215063 16.9606767,14.7355401 17.1575259,14.5406692 L22.4594336,9.29206558 C22.4644817,9.28712902 22.467185,9.28147765 22.4679715,9.2735483 C22.4698743,9.25427088 22.4526206,9.23349681 22.4236588,9.23069145 L15.9941335,8.59333296 C15.7334613,8.56749255 15.5040713,8.41023325 15.3859815,8.17641178 L12.0435022,1.55820107 Z"></path>
            </g>
        </g>
    </g>
</svg>