<?xml version="1.0" encoding="UTF-8"?>
<svg width="24px" height="24px" viewBox="0 0 24 24" version="1.1" xmlns="http://www.w3.org/2000/svg" xmlns:xlink="http://www.w3.org/1999/xlink">
    <title>_All / Icons / Angle-up</title>
    <g id="Icons" stroke="none" stroke-width="1" fill="none" fill-rule="evenodd">
        <g id="D.-Desktop" transform="translate(-528.000000, -232.000000)" fill="#262222">
            <g id="Icon-colour" transform="translate(528.000000, 232.000000)">
                <path d="M0.219669914,0.218669914 C0.512563133,-0.0742233047 0.987436867,-0.0742233047 1.28033009,0.218669914 L1.28033009,0.218669914 L12,10.938 L22.7196699,0.218669914 C22.9859365,-0.0475966484 23.4026002,-0.0718026996 23.6962117,0.146051761 L23.7803301,0.218669914 C24.0732233,0.511563133 24.0732233,0.986436867 23.7803301,1.27933009 L23.7803301,1.27933009 L13.061,11.999 L23.7803301,22.7186699 C24.0465966,22.9849365 24.0708027,23.4016002 23.8529482,23.6952117 L23.7803301,23.7793301 C23.4874369,24.0722233 23.0125631,24.0722233 22.7196699,23.7793301 L22.7196699,23.7793301 L12,13.06 L1.28033009,23.7793301 C1.01406352,24.0455966 0.597399841,24.0698027 0.303788347,23.8519482 L0.219669914,23.7793301 C-0.0732233047,23.4864369 -0.0732233047,23.0115631 0.219669914,22.7186699 L0.219669914,22.7186699 L10.939,11.999 L0.219669914,1.27933009 C-0.0465966484,1.01306352 -0.0708026996,0.596399841 0.147051761,0.302788347 Z"></path>
            </g>
        </g>
    </g>
</svg>